<svg height="512pt" viewBox="-9 0 512 512.0011" width="512pt" xmlns="http://www.w3.org/2000/svg" xmlns:xlink="http://www.w3.org/1999/xlink"><linearGradient id="a"><stop offset="0" stop-color="#19bfd1"/><stop offset=".437" stop-color="#19bfd1"/><stop offset="1" stop-color="#00c9dd"/></linearGradient><linearGradient id="b" gradientTransform="matrix(1.099725 0 0 -1.099725 -8.532215 504.202951)" gradientUnits="userSpaceOnUse" x1="-27.1583" x2="408.7169" xlink:href="#a" y1="408.0441" y2="-27.8311"/><linearGradient id="c" gradientTransform="matrix(1.099725 0 0 -1.099725 -8.532215 504.202951)" gradientUnits="userSpaceOnUse" x1="-15.534" x2="420.3412" xlink:href="#a" y1="419.6685" y2="-16.199"/><linearGradient id="d" gradientTransform="matrix(1.099725 0 0 -1.099725 -8.532215 504.202951)" gradientUnits="userSpaceOnUse" x1="79.535" x2="515.4102" xlink:href="#a" y1="514.7375" y2="78.8622"/><linearGradient id="e" gradientTransform="matrix(1.099725 0 0 -1.099725 -8.532215 504.202951)" gradientUnits="userSpaceOnUse" x1="64.016" x2="499.8911" xlink:href="#a" y1="499.2184" y2="63.3432"/><linearGradient id="f" gradientTransform="matrix(1.099725 0 0 -1.099725 -8.532215 504.202951)" gradientUnits="userSpaceOnUse" x1="48.497" x2="484.3721" xlink:href="#a" y1="483.6994" y2="47.8242"/><linearGradient id="g" gradientTransform="matrix(1.099725 0 0 -1.099725 -8.532215 504.202951)" gradientUnits="userSpaceOnUse" x1="21.3386" x2="457.2139" xlink:href="#a" y1="456.5411" y2="20.6659"/><linearGradient id="h" gradientTransform="matrix(1.099725 0 0 -1.099725 -8.532215 504.202951)" gradientUnits="userSpaceOnUse" x1="-162.9498" x2="272.9254" xlink:href="#a" y1="272.2526" y2="-163.6226"/><linearGradient id="i" gradientTransform="matrix(1.099725 0 0 -1.099725 -8.532215 504.202951)" gradientUnits="userSpaceOnUse" x1="-131.9118" x2="303.9634" xlink:href="#a" y1="303.2906" y2="-132.5845"/><linearGradient id="j" gradientTransform="matrix(1.099725 0 0 -1.099725 -8.532215 504.202951)" gradientUnits="userSpaceOnUse" x1="-98.9339" x2="336.9414" xlink:href="#a" y1="336.2686" y2="-99.6066"/><linearGradient id="k" gradientTransform="matrix(1.099725 0 0 -1.099725 -8.532215 504.202951)" gradientUnits="userSpaceOnUse" x1="-65.9559" x2="369.9193" xlink:href="#a" y1="369.2465" y2="-66.6286"/><linearGradient id="l" gradientTransform="matrix(1.099725 0 0 -1.099725 -8.532215 504.202951)" gradientUnits="userSpaceOnUse" x1="-73.7154" x2="362.1598" xlink:href="#a" y1="361.487" y2="-74.3881"/><linearGradient id="m" gradientTransform="matrix(1.099725 0 0 -1.099725 -8.532215 504.202951)" gradientUnits="userSpaceOnUse" x1="-85.3547" x2="350.5205" xlink:href="#a" y1="349.8477" y2="-86.0274"/><linearGradient id="n" gradientTransform="matrix(1.099725 0 0 -1.099725 -8.532215 504.202951)" gradientUnits="userSpaceOnUse" x1="-104.7535" x2="331.1217" xlink:href="#a" y1="330.449" y2="-105.4262"/><path d="m494.933594 358.398438c.0625-65.917969-53.328125-119.402344-119.242188-119.464844-.074218 0-.148437 0-.222656 0-5.714844.042968-11.417969.496094-17.066406 1.367187v-197.632812c0-4.714844-3.820313-8.535157-8.535156-8.535157h-102.398438v-17.066406c0-9.425781-7.640625-17.066406-17.066406-17.066406h-102.402344c-9.425781 0-17.066406 7.640625-17.066406 17.066406v17.066406h-102.398438c-4.714844 0-8.535156 3.820313-8.535156 8.535157v460.800781c0 4.710938 3.820312 8.53125 8.535156 8.53125h341.332032c4.714843 0 8.535156-3.820312 8.535156-8.53125v-26.964844c50.976562 7.832032 101.132812-18.371094 123.820312-64.691406 8.367188-16.5625 12.722656-34.859375 12.710938-53.414062zm-96.714844 1.835937 11.578125-3.625 65.628906-20.480469c1.625 7.3125 2.445313 14.78125 2.441407 22.269532.011718 13.015624-2.492188 25.910156-7.382813 37.972656zm72.140625-40.429687-90.683594 28.355468-44.699219-83.789062c51.9375-22.382813 112.183594 1.578125 134.566407 53.515625.277343.648437.550781 1.296875.816406 1.949219zm-342.359375-302.738282h102.402344v51.199219h-102.402344zm213.335938 477.867188h-324.269532v-443.734375h93.867188v17.066406c0 9.425781 7.644531 17.066406 17.066406 17.066406h102.402344c9.425781 0 17.066406-7.640625 17.066406-17.066406v-17.066406h93.867188v192.949219c-7.640626 2.199218-15.039063 5.167968-22.085938 8.855468-58.199219 31.023438-80.230469 103.351563-49.207031 161.550782 15.015625 28.175781 40.691406 49.164062 71.292969 58.277343zm34.132812-34.132813c-56.554688-.015625-102.386719-45.875-102.371094-102.429687.011719-34.75 17.640625-67.121094 46.828125-85.976563l48.015625 90.023438.058594.085937c.136719.25.335938.445313.488281.675782.277344.4375.597657.851562.945313 1.238281l.113281.117187c.1875.15625.390625.304688.597656.4375.394531.324219.820313.609375 1.269531.851563.085938.042969.144532.121093.238282.171875l91.1875 45.59375c-18.457032 30.609375-51.625 49.289062-87.371094 49.210937zm0 0" fill="url(#b)"/><path d="m102.402344 238.933594c37.683594-.042969 68.222656-30.582032 68.265625-68.265625.035156-15.1875-5.042969-29.941407-14.421875-41.882813-23.066406-29.730468-65.863282-35.128906-95.59375-12.0625-5.242188 4.070313-9.867188 8.882813-13.71875 14.289063l6.9375 4.964843-6.945313-4.964843c-21.933593 30.625-14.886719 73.234375 15.738281 95.167969 11.585938 8.296874 25.484376 12.757812 39.738282 12.753906zm50.480468-76.800782h-17.570312c-.4375-1.679687-1.007812-3.324218-1.707031-4.914062l13.878906-10.785156c2.660156 4.894531 4.484375 10.203125 5.398437 15.699218zm-41.949218-41.871093c9.722656 1.640625 18.753906 6.089843 25.976562 12.796875l-13.78125 10.71875c-3.609375-2.828125-7.757812-4.894532-12.195312-6.066406zm4.863281 40.003906c2.355469 2.957031 3.648437 6.621094 3.671875 10.402344 0 9.425781-7.640625 17.066406-17.066406 17.066406-9.425782 0-17.066406-7.640625-17.066406-17.066406-.042969-9.378907 7.523437-17.019531 16.902343-17.0625 5.3125-.023438 10.332031 2.441406 13.558594 6.660156zm-21.929687-39.945313v17.382813c-4.898438 1.28125-9.449219 3.636719-13.328126 6.894531l-14.140624-10.097656c7.480468-7.4375 17.074218-12.386719 27.46875-14.179688zm-37.453126 27.988282 14.234376 10.164062c-1.542969 3.878906-2.351563 8.015625-2.378907 12.195313-.023437 18.8125 15.207031 34.082031 34.019531 34.105469 15.558594.019531 29.15625-10.503907 33.035157-25.574219h17.507812c-4.875 27.855469-31.40625 46.480469-59.261719 41.605469-24.386718-4.273438-42.226562-25.378907-42.367187-50.136719 0-7.753907 1.785156-15.402344 5.210937-22.359375zm0 0" fill="url(#c)"/><path d="m204.800781 110.933594h110.933594v17.066406h-110.933594zm0 0" fill="url(#d)"/><path d="m204.800781 145.066406h110.933594v17.066406h-110.933594zm0 0" fill="url(#e)"/><path d="m204.800781 179.199219h110.933594v17.066406h-110.933594zm0 0" fill="url(#f)"/><path d="m204.800781 213.332031h59.734375v17.066407h-59.734375zm0 0" fill="url(#g)"/><path d="m68.269531 418.132812h-25.601562c-4.710938 0-8.535157 3.820313-8.535157 8.535157v42.664062c0 4.714844 3.820313 8.535157 8.535157 8.535157h25.601562c4.710938 0 8.53125-3.820313 8.53125-8.535157v-42.664062c0-4.714844-3.820312-8.535157-8.53125-8.535157zm-8.535156 42.667969h-8.535156v-25.601562h8.535156zm0 0" fill="url(#h)"/><path d="m119.46875 384h-25.601562c-4.710938 0-8.535157 3.820312-8.535157 8.535156v76.796875c0 4.714844 3.820313 8.535157 8.535157 8.535157h25.601562c4.710938 0 8.53125-3.820313 8.53125-8.535157v-76.796875c0-4.714844-3.820312-8.535156-8.53125-8.535156zm-8.535156 76.800781h-8.535156v-59.734375h8.535156zm0 0" fill="url(#i)"/><path d="m170.667969 341.332031h-25.601563c-4.710937 0-8.53125 3.820313-8.53125 8.535157v119.464843c0 4.714844 3.820313 8.535157 8.53125 8.535157h25.601563c4.710937 0 8.535156-3.820313 8.535156-8.535157v-119.464843c-.003906-4.714844-3.824219-8.535157-8.535156-8.535157zm-8.535157 119.46875h-8.53125v-102.402343h8.53125zm0 0" fill="url(#j)"/><path d="m221.867188 298.667969h-25.601563c-4.710937 0-8.53125 3.820312-8.53125 8.53125v162.132812c0 4.714844 3.820313 8.535157 8.53125 8.535157h25.601563c4.714843 0 8.535156-3.820313 8.535156-8.535157v-162.132812c0-4.710938-3.820313-8.53125-8.535156-8.53125zm-8.535157 162.132812h-8.53125v-145.066406h8.53125zm0 0" fill="url(#k)"/><path d="m34.136719 256h68.265625v17.066406h-68.265625zm0 0" fill="url(#l)"/><path d="m34.136719 281.601562h68.265625v17.066407h-68.265625zm0 0" fill="url(#m)"/><path d="m34.136719 307.199219h34.132812v17.066406h-34.132812zm0 0" fill="url(#n)"/></svg>
