<?xml version="1.0"?>
<svg xmlns="http://www.w3.org/2000/svg" xmlns:xlink="http://www.w3.org/1999/xlink" version="1.1" id="Capa_1" x="0px" y="0px" viewBox="0 0 512 512" style="enable-background:new 0 0 512 512;" xml:space="preserve" width="512px" height="512px" class=""><g><g>
	
		<rect x="251.995" y="-26.237" transform="matrix(-0.7071 0.7071 -0.7071 -0.7071 618.0305 256.0034)" style="fill:#19BFD1" width="8" height="564.475" data-original="#CCCCCC" class="" data-old_color="#CCCCCC"/>
	
		<rect x="-26.242" y="252" transform="matrix(-0.7071 0.7071 -0.7071 -0.7071 618.0305 256.0034)" style="fill:#19BFD1" width="564.475" height="8" data-original="#CCCCCC" class="" data-old_color="#CCCCCC"/>
</g><circle style="fill:#666666;" cx="256" cy="256" r="42.904" data-original="#666666" class=""/><path style="fill:#19BFD1" d="M330.232,245.544h15.624c22.464,0,40.848,18.344,40.848,40.776v8.152  c0,22.424-18.384,40.776-40.848,40.776H166.144c-22.464,0-40.848-18.344-40.848-40.776v-8.152c0-20.912,16.04-38.08,36.416-40.328  c-0.4-2.816-0.68-5.68-0.68-8.6c0-33.504,27.2-60.656,60.752-60.656c25.768,0,47.728,16.04,56.568,38.64  c0,0,13.616-6.248,30.64-0.232C330.168,222.64,330.232,245.544,330.232,245.544z" data-original="#CCCCCC" class="" data-old_color="#CCCCCC"/><polyline style="fill:#19BFD1" points="512,100.824 512,0 406.8,0 406.8,140.272 472.56,140.272 512,100.824 " data-original="#FF0000" class="" data-old_color="#FF0000"/><polygon points="472.56,140.272 472.56,100.824 512,100.824 " data-original="#000000" class="active-path" style="fill:#E3E9ED" data-old_color="#000000"/><polyline style="fill:#19BFD1" points="512,472.56 512,371.728 406.8,371.728 406.8,512 472.56,512 512,472.56 " data-original="#999999" class="" data-old_color="#999999"/><polygon points="472.56,512 472.56,472.56 512,472.56 " data-original="#000000" class="active-path" style="fill:#E3E9ED" data-old_color="#000000"/><polyline style="fill:#19BFD1" points="105.2,100.824 105.2,0 0,0 0,140.272 65.76,140.272 105.2,100.824 " data-original="#FF0000" class="" data-old_color="#FF0000"/><polygon points="65.76,140.272 65.76,100.824 105.2,100.824 " data-original="#000000" class="active-path" style="fill:#E3E9ED" data-old_color="#000000"/><polyline style="fill:#19BFD1" points="105.2,472.56 105.2,371.728 0,371.728 0,512 65.76,512 105.2,472.56 " data-original="#999999" class="" data-old_color="#999999"/><polygon points="65.76,512 65.76,472.56 105.2,472.56 " data-original="#000000" class="active-path" style="fill:#E3E9ED" data-old_color="#000000"/></g> </svg>
