<?xml version="1.0"?>
<svg xmlns="http://www.w3.org/2000/svg" id="icons" enable-background="new 0 0 64 64" height="512px" viewBox="0 0 64 64" width="512px" class=""><g><path d="m44 5h-24c-2.76 0-5 2.24-5 5v1 44.002 2c0 3.3 2.7 6 6 6h11 11c3.3 0 6-2.7 6-6v-2-44.002-1c0-2.76-2.24-5-5-5z" fill="#5c9eff" data-original="#5C9EFF" class="" style="fill:#19BFD1" data-old_color="#5c9eff"/><path d="m44 .998h-24c-2.76 0-5 2.24-5 5v1 44 2c0 3.3 2.7 6 6 6h11 11c3.3 0 6-2.7 6-6v-2-44-1c0-2.76-2.24-5-5-5z" fill="#94c1ff" data-original="#94C1FF" class="active-path" style="fill:#FFFFFF" data-old_color="#94c1ff"/><path d="m15 6.998h34v44h-34z" fill="#d7e9ff" data-original="#D7E9FF" class="" style="fill:#FFFFFF" data-old_color="#d7e9ff"/><path d="m32 52.998c1.1 0 2 .9 2 2 0 1.11-.9 2-2 2s-2-.89-2-2c0-1.1.9-2 2-2z" fill="#d7e9ff" data-original="#D7E9FF" class="" style="fill:#FFFFFF" data-old_color="#d7e9ff"/><path d="m46 41.998v3 .01h-19-9v-.01-3z" fill="#fff" data-original="#FFF" class="" data-old_color="#fff" style="fill:#FFFFFF"/><path d="m18 38.998h28v3h-28z" fill="#fff" data-original="#FFF" class="" data-old_color="#fff" style="fill:#FFFFFF"/><path d="m27 45.008h19v5.99h-16-3z" fill="#fff" data-original="#FFF" class="" data-old_color="#fff" style="fill:#FFFFFF"/><path d="m27 21.998h19v9h-19v-1z" fill="#fff" data-original="#FFF" class="" data-old_color="#fff" style="fill:#FFFFFF"/><path d="m27 9.998h19v9h-19v-1z" fill="#fff" data-original="#FFF" class="" data-old_color="#fff" style="fill:#FFFFFF"/><path d="m22.5 50.998h-4.5v-5.99h9v5.99z" fill="#94c1ff" data-original="#94C1FF" class="active-path" style="fill:#FFFFFF" data-old_color="#94c1ff"/><path d="m27 30.998h-9v-9h9v8z" fill="#94c1ff" data-original="#94C1FF" class="active-path" style="fill:#FFFFFF" data-old_color="#94c1ff"/><path d="m27 18.998h-9v-9h9v8z" fill="#94c1ff" data-original="#94C1FF" class="active-path" style="fill:#FFFFFF" data-old_color="#94c1ff"/><g fill="#116fff"><path d="m43 60h-22c-3.859 0-7-3.141-7-7 0-.553.447-1 1-1s1 .447 1 1c0 2.757 2.243 5 5 5h22c2.757 0 5-2.243 5-5 0-.553.447-1 1-1s1 .447 1 1c0 3.859-3.141 7-7 7z" data-original="#116FFF" class="" data-old_color="#116FFF" style="fill:#19BFD1"/><path d="m29.03 5c-.553 0-1.005-.448-1.005-1s.442-1 .994-1h.011c.552 0 1 .448 1 1s-.448 1-1 1z" data-original="#116FFF" class="" data-old_color="#116FFF" style="fill:#19BFD1"/><path d="m35 5h-3c-.553 0-1-.448-1-1s.447-1 1-1h3c.553 0 1 .448 1 1s-.447 1-1 1z" data-original="#116FFF" class="" data-old_color="#116FFF" style="fill:#19BFD1"/><path d="m49 7.002c-.553 0-1-.448-1-1 0-2.206-1.794-4-4-4-.553 0-1-.448-1-1s.447-1 1-1c3.309 0 6 2.691 6 6 0 .552-.447 1-1 1z" data-original="#116FFF" class="" data-old_color="#116FFF" style="fill:#19BFD1"/><path d="m15 7c-.553 0-1-.448-1-1 0-3.309 2.691-6 6-6 .553 0 1 .448 1 1s-.447 1-1 1c-2.206 0-4 1.794-4 4 0 .552-.447 1-1 1z" data-original="#116FFF" class="" data-old_color="#116FFF" style="fill:#19BFD1"/><path d="m44 2h-24c-.553 0-1-.448-1-1s.447-1 1-1h24c.553 0 1 .448 1 1s-.447 1-1 1z" data-original="#116FFF" class="" data-old_color="#116FFF" style="fill:#19BFD1"/><path d="m49 8.002h-34c-.553 0-1-.448-1-1s.447-1 1-1h34c.553 0 1 .448 1 1s-.447 1-1 1z" data-original="#116FFF" class="" data-old_color="#116FFF" style="fill:#19BFD1"/><path d="m43 64h-22c-3.859 0-7-3.141-7-7v-51c0-.552.447-1 1-1s1 .448 1 1v51c0 2.757 2.243 5 5 5h22c2.757 0 5-2.243 5-5v-50.998c0-.552.447-1 1-1s1 .448 1 1v50.998c0 3.859-3.141 7-7 7z" data-original="#116FFF" class="" data-old_color="#116FFF" style="fill:#19BFD1"/><path d="m49 52h-34c-.553 0-1-.447-1-1s.447-1 1-1h34c.553 0 1 .447 1 1s-.447 1-1 1z" data-original="#116FFF" class="" data-old_color="#116FFF" style="fill:#19BFD1"/><path d="m32 58c-1.654 0-3-1.346-3-3s1.346-3 3-3 3 1.346 3 3-1.346 3-3 3zm0-4c-.552 0-1 .448-1 1s.448 1 1 1 1-.448 1-1-.448-1-1-1z" data-original="#116FFF" class="" data-old_color="#116FFF" style="fill:#19BFD1"/><path d="m46 19.999h-28c-.553 0-1-.448-1-1v-9c0-.552.447-1 1-1h28c.553 0 1 .448 1 1v9c0 .552-.447 1-1 1zm-27-2h26v-7h-26z" data-original="#116FFF" class="" data-old_color="#116FFF" style="fill:#19BFD1"/><path d="m27.001 19.999c-.553 0-1-.448-1-1v-9c0-.552.447-1 1-1s1 .448 1 1v9c0 .552-.447 1-1 1z" data-original="#116FFF" class="" data-old_color="#116FFF" style="fill:#19BFD1"/><path d="m22.5 17c-.553 0-1-.448-1-1v-1c0-.552.447-1 1-1s1 .448 1 1v1c0 .552-.447 1-1 1z" data-original="#116FFF" class="" data-old_color="#116FFF" style="fill:#19BFD1"/><path d="m22.529 14c-.553 0-1.005-.448-1.005-1s.442-1 .994-1h.011c.552 0 1 .448 1 1s-.448 1-1 1z" data-original="#116FFF" class="" data-old_color="#116FFF" style="fill:#19BFD1"/><path d="m43.001 14h-13c-.553 0-1-.448-1-1s.447-1 1-1h13c.553 0 1 .448 1 1s-.447 1-1 1z" data-original="#116FFF" class="" data-old_color="#116FFF" style="fill:#19BFD1"/><path d="m36 17h-5.999c-.553 0-1-.448-1-1s.447-1 1-1h5.999c.553 0 1 .448 1 1s-.447 1-1 1z" data-original="#116FFF" class="" data-old_color="#116FFF" style="fill:#19BFD1"/><path d="m46 32h-28c-.553 0-1-.448-1-1v-9c0-.552.447-1 1-1h28c.553 0 1 .448 1 1v9c0 .552-.447 1-1 1zm-27-2h26v-7h-26z" data-original="#116FFF" class="" data-old_color="#116FFF" style="fill:#19BFD1"/><path d="m27.001 32c-.553 0-1-.448-1-1v-9c0-.552.447-1 1-1s1 .448 1 1v9c0 .552-.447 1-1 1z" data-original="#116FFF" class="" data-old_color="#116FFF" style="fill:#19BFD1"/><path d="m22.5 29c-.553 0-1-.448-1-1v-1c0-.552.447-1 1-1s1 .448 1 1v1c0 .552-.447 1-1 1z" data-original="#116FFF" class="" data-old_color="#116FFF" style="fill:#19BFD1"/><path d="m22.529 26c-.553 0-1.005-.448-1.005-1s.442-1 .994-1h.011c.552 0 1 .448 1 1s-.448 1-1 1z" data-original="#116FFF" class="" data-old_color="#116FFF" style="fill:#19BFD1"/><path d="m43.001 26h-13c-.553 0-1-.448-1-1s.447-1 1-1h13c.553 0 1 .448 1 1s-.447 1-1 1z" data-original="#116FFF" class="" data-old_color="#116FFF" style="fill:#19BFD1"/><path d="m36 29h-5.999c-.553 0-1-.448-1-1s.447-1 1-1h5.999c.553 0 1 .448 1 1s-.447 1-1 1z" data-original="#116FFF" class="" data-old_color="#116FFF" style="fill:#19BFD1"/><path d="m46 52.008c-.553 0-1-.447-1-1v-4.997h-26v4.997c0 .553-.447 1-1 1s-1-.447-1-1v-5.997c0-.553.447-1 1-1h28c.553 0 1 .447 1 1v5.997c0 .553-.447 1-1 1z" data-original="#116FFF" class="" data-old_color="#116FFF" style="fill:#19BFD1"/><path d="m27.001 52.009c-.553 0-1-.447-1-1v-5.998c0-.553.447-1 1-1s1 .447 1 1v5.998c0 .553-.447 1-1 1z" data-original="#116FFF" class="" data-old_color="#116FFF" style="fill:#19BFD1"/><path d="m22.5 52.012c-.553 0-1-.447-1-1v-1c0-.553.447-1 1-1s1 .447 1 1v1c0 .552-.447 1-1 1z" data-original="#116FFF" class="" data-old_color="#116FFF" style="fill:#19BFD1"/><path d="m22.529 49.012c-.553 0-1.005-.447-1.005-1s.442-1 .994-1h.011c.552 0 1 .447 1 1s-.448 1-1 1z" data-original="#116FFF" class="" data-old_color="#116FFF" style="fill:#19BFD1"/><path d="m43.001 49.012h-13c-.553 0-1-.447-1-1s.447-1 1-1h13c.553 0 1 .447 1 1s-.447 1-1 1z" data-original="#116FFF" class="" data-old_color="#116FFF" style="fill:#19BFD1"/><path d="m36 52.012h-5.999c-.553 0-1-.447-1-1s.447-1 1-1h5.999c.553 0 1 .447 1 1s-.447 1-1 1z" data-original="#116FFF" class="" data-old_color="#116FFF" style="fill:#19BFD1"/><path d="m46 46.004c-.553 0-1-.447-1-1v-3c0-.553.447-1 1-1s1 .447 1 1v3c0 .553-.447 1-1 1z" data-original="#116FFF" class="" data-old_color="#116FFF" style="fill:#19BFD1"/><path d="m46 43.004h-28c-.553 0-1-.447-1-1s.447-1 1-1h28c.553 0 1 .447 1 1s-.447 1-1 1z" data-original="#116FFF" class="" data-old_color="#116FFF" style="fill:#19BFD1"/><path d="m18 46.004c-.553 0-1-.447-1-1v-3c0-.553.447-1 1-1s1 .447 1 1v3c0 .553-.447 1-1 1z" data-original="#116FFF" class="" data-old_color="#116FFF" style="fill:#19BFD1"/><path d="m46 43.003c-.553 0-1-.447-1-1v-3c0-.553.447-1 1-1s1 .447 1 1v3c0 .553-.447 1-1 1z" data-original="#116FFF" class="" data-old_color="#116FFF" style="fill:#19BFD1"/><path d="m46 40.003h-28c-.553 0-1-.447-1-1s.447-1 1-1h28c.553 0 1 .447 1 1s-.447 1-1 1z" data-original="#116FFF" class="" data-old_color="#116FFF" style="fill:#19BFD1"/><path d="m18 43.003c-.553 0-1-.447-1-1v-3c0-.553.447-1 1-1s1 .447 1 1v3c0 .553-.447 1-1 1z" data-original="#116FFF" class="" data-old_color="#116FFF" style="fill:#19BFD1"/></g></g> </svg>
